<?xml version="1.0" encoding="UTF-8"?>
<!DOCTYPE svg PUBLIC "-//W3C//DTD SVG 1.0//EN" "http://www.w3.org/TR/2001/REC-SVG-20010904/DTD/svg10.dtd">
<!-- Creator: CorelDRAW X7 -->
<svg xmlns="http://www.w3.org/2000/svg" xml:space="preserve" width="210mm" height="210mm" version="1.0" style="shape-rendering:geometricPrecision; text-rendering:geometricPrecision; image-rendering:optimizeQuality; fill-rule:evenodd; clip-rule:evenodd"
viewBox="0 0 6872 6872"
 xmlns:xlink="http://www.w3.org/1999/xlink">
 <defs>
  <style type="text/css">
   <![CDATA[
    .fil0 {fill:url(#id0)}
   ]]>
  </style>
  <linearGradient id="id0" gradientUnits="userSpaceOnUse" x1="-0" y1="3435.84" x2="6871.67" y2="3435.84">
   <stop offset="0" style="stop-opacity:1; stop-color:#2E18B1"/>
   <stop offset="1" style="stop-opacity:1; stop-color:#3C4EC9"/>
  </linearGradient>
 </defs>
 <g id="Layer_x0020_1">
  <metadata id="CorelCorpID_0Corel-Layer"/>
  <path class="fil0" d="M3436 0c-1898,0 -3436,1538 -3436,3436 0,1897 1538,3436 3436,3436 1897,0 3436,-1539 3436,-3436 -2,-1897 -1539,-3434 -3436,-3436zm1447 3326c-24,-47 -63,-86 -110,-110l-1964 -981c-121,-61 -268,-12 -329,109 -17,34 -26,72 -26,110l0 1964c0,135 110,245 245,245 39,0 76,-9 110,-26l1964 -982c121,-60 170,-207 110,-329zm-1938 694l0 -1169 1169 585 -1169 584zm491 2361c-1627,0 -2945,-1319 -2945,-2945 0,-1627 1318,-2945 2945,-2945 1626,0 2945,1318 2945,2945 -2,1626 -1319,2943 -2945,2945z"/>
 </g>
</svg>
